<svg width="18" height="17" viewBox="0 0 18 17" fill="none" xmlns="http://www.w3.org/2000/svg">
<path d="M10.9208 2.89282H16.8214V14.9141C16.8214 15.4315 16.3556 15.75 15.8509 15.75H1.64286C1.1382 15.75 0.75 15.3519 0.75 14.8344V2.89282H6.57298" stroke="#2F3035" stroke-width="1.5" stroke-miterlimit="10"/>
<path d="M11.1353 2.89286H16.7665C16.8053 2.89286 16.8442 2.86088 16.8053 2.82889L14.7082 0.75H2.86323L0.766086 2.82889C0.72725 2.86088 0.766088 2.89286 0.804924 2.89286H6.43614" stroke="#2F3035" stroke-width="1.5" stroke-miterlimit="10"/>
<path d="M11.4641 2.89286L10.5324 0.75H7.13178L6.10693 2.89286" stroke="#2F3035" stroke-width="1.5" stroke-miterlimit="10"/>
<path d="M11.4641 2.89282V7.17854L8.85419 5.67274L6.10693 7.17854V2.89282" stroke="#2F3035" stroke-width="1.5" stroke-miterlimit="10"/>
<path d="M10.7364 11.4643H6.8718C6.42898 11.4643 6.10693 11.026 6.10693 10.5389V10.2467C6.10693 9.71102 6.46924 9.32141 6.8718 9.32141H10.6961C11.139 9.32141 11.461 9.75972 11.461 10.2467V10.5389C11.5013 11.0747 11.139 11.4643 10.7364 11.4643Z" stroke="#2F3035" stroke-width="1.5" stroke-miterlimit="10"/>
</svg>
