<svg width="18" height="22" viewBox="0 0 18 22" fill="none" xmlns="http://www.w3.org/2000/svg">
<path d="M6.83333 13.1843C6.55719 13.1843 6.33333 13.4081 6.33333 13.6843V19.5414C6.33333 19.8176 6.10948 20.0414 5.83333 20.0414H1.5C1.22386 20.0414 1 19.8176 1 19.5414V7.92854C1 7.78258 1.06378 7.6439 1.1746 7.54891L8.6746 1.12034C8.86185 0.959846 9.13815 0.959846 9.3254 1.12034L16.8254 7.54891C16.9362 7.6439 17 7.78258 17 7.92854V19.5414C17 19.8176 16.7761 20.0414 16.5 20.0414H12.1667C11.8905 20.0414 11.6667 19.8176 11.6667 19.5414V13.6843C11.6667 13.4081 11.4428 13.1843 11.1667 13.1843H6.83333Z" stroke="#2F3035" stroke-width="2" stroke-linecap="round" stroke-linejoin="round"/>
</svg>
