<svg width="16" height="16" viewBox="0 0 16 16" fill="none" xmlns="http://www.w3.org/2000/svg">
<path d="M5.66016 1.02539C6.25488 1.70215 6.55225 2.61816 6.55225 3.77344C6.55225 4.92871 6.25488 5.84814 5.66016 6.53174C5.06543 7.21533 4.26904 7.55713 3.271 7.55713C2.27295 7.55713 1.47656 7.21533 0.881836 6.53174C0.293945 5.84814 0 4.92871 0 3.77344C0 2.61816 0.293945 1.70215 0.881836 1.02539C1.47656 0.341797 2.27295 0 3.271 0C4.26904 0 5.06543 0.341797 5.66016 1.02539ZM3.271 5.94727C3.65381 5.94727 3.95117 5.75586 4.16309 5.37305C4.38184 4.9834 4.49121 4.4502 4.49121 3.77344C4.49121 3.08984 4.38184 2.55664 4.16309 2.17383C3.95117 1.78418 3.65381 1.58936 3.271 1.58936C2.89502 1.58936 2.59766 1.78418 2.37891 2.17383C2.16699 2.55664 2.06104 3.08984 2.06104 3.77344C2.06104 4.4502 2.16699 4.9834 2.37891 5.37305C2.59766 5.75586 2.89502 5.94727 3.271 5.94727ZM3.47607 15.0425H1.24072L6.97266 7.19824L12.0586 0.246094H14.2734L8.69531 7.88525L3.47607 15.0425ZM14.6323 8.69531C15.2271 9.37891 15.5244 10.2983 15.5244 11.4536C15.5244 12.6089 15.2271 13.5283 14.6323 14.2119C14.0376 14.8887 13.2412 15.2271 12.2432 15.2271C11.2451 15.2271 10.4487 14.8887 9.854 14.2119C9.26611 13.5283 8.97217 12.6089 8.97217 11.4536C8.97217 10.2983 9.26611 9.37891 9.854 8.69531C10.4487 8.01172 11.2451 7.66992 12.2432 7.66992C13.2412 7.66992 14.0376 8.01172 14.6323 8.69531ZM11.3511 13.043C11.5698 13.4326 11.8672 13.6274 12.2432 13.6274C12.6191 13.6274 12.9165 13.4326 13.1353 13.043C13.354 12.6533 13.4634 12.1201 13.4634 11.4434C13.4634 10.7666 13.354 10.2334 13.1353 9.84375C12.9165 9.4541 12.6191 9.25928 12.2432 9.25928C11.8672 9.25928 11.5698 9.4541 11.3511 9.84375C11.1392 10.2334 11.0332 10.7666 11.0332 11.4434C11.0332 12.1201 11.1392 12.6533 11.3511 13.043Z" fill="#2F3035"/>
</svg>
